<svg width="196" height="196" viewBox="0 0 196 196" fill="none" xmlns="http://www.w3.org/2000/svg">
<g clip-path="url(#clip0_190_13)">
<path d="M98 196C152.124 196 196 152.124 196 98C196 43.8761 152.124 0 98 0C43.8761 0 0 43.8761 0 98C0 152.124 43.8761 196 98 196Z" fill="#EFFAFE"/>
<path d="M135.363 81.4625C135.363 81.4625 123.419 61.25 118.213 61.25H90.0377C84.8314 61.25 72.8877 81.4625 72.8877 81.4625C72.8877 90.9563 75.3377 95.55 80.5439 95.55H127.4C132.606 95.55 135.363 90.9563 135.363 81.4625Z" fill="#3370FF"/>
<path d="M63.7002 117.294C63.7002 117.294 75.9502 137.506 81.4627 137.506H129.544C134.75 137.506 147.306 117.294 147.306 117.294C147.306 107.8 144.55 103.206 139.344 103.206H71.9689C66.4564 103.206 63.7002 107.8 63.7002 117.294Z" fill="#3370FF"/>
<path d="M49 110.25C49 113.619 40.1187 128.625 36.75 128.625C33.3812 128.625 30.625 125.869 30.625 122.5V79.625C30.625 76.2562 33.3812 73.5 36.75 73.5C40.1187 73.5 49 88.5063 49 91.875V110.25Z" fill="#E0995E"/>
<path opacity="0.2" d="M171.5 107.188C171.5 90.3438 144.55 79.625 107.188 79.625C69.825 79.625 24.5 101.981 24.5 107.188C24.5 112.088 69.825 134.75 107.188 134.75C144.55 134.75 171.5 124.031 171.5 107.188Z" fill="#231F20"/>
<path d="M171.5 101.062C171.5 84.2188 144.55 73.5 107.188 73.5C69.825 73.5 24.5 95.8563 24.5 101.062C24.5 105.963 69.825 128.625 107.188 128.625C144.55 128.625 171.5 117.906 171.5 101.062Z" fill="#3370FF"/>
<path d="M110.25 107.188C115.324 107.188 119.438 103.074 119.438 98C119.438 92.9259 115.324 88.8125 110.25 88.8125C105.176 88.8125 101.062 92.9259 101.062 98C101.062 103.074 105.176 107.188 110.25 107.188Z" fill="#E0995E"/>
<path d="M140.875 107.188C145.949 107.188 150.062 103.074 150.062 98C150.062 92.9259 145.949 88.8125 140.875 88.8125C135.801 88.8125 131.688 92.9259 131.688 98C131.688 103.074 135.801 107.188 140.875 107.188Z" fill="#E0995E"/>
<path d="M79.625 107.188C84.6991 107.188 88.8125 103.074 88.8125 98C88.8125 92.9259 84.6991 88.8125 79.625 88.8125C74.5509 88.8125 70.4375 92.9259 70.4375 98C70.4375 103.074 74.5509 107.188 79.625 107.188Z" fill="#E0995E"/>
</g>
<defs>
<clipPath id="clip0_190_13">
<rect width="196" height="196" fill="white"/>
</clipPath>
</defs>
</svg>
